<svg role="img" aria-labelledby="columbia-logo-title" xmlns="http://www.w3.org/2000/svg" viewBox="0 0 600 95.1"><title id="columbia-logo-title">Columbia University</title>
          <g id="_x23_000d74__x7C__RGB__x7C__BLUE">
            <g id="Columbia_University_4_">
              <path fill="#1f4e79" class="st1" d="M87.2 44.8c-4.4-4-5.5-9.2-5.5-13.5 0-3.1 1.1-8.4 5.1-12.5 2.7-2.7 6.9-4.9 13.9-4.9 1.8 0 4.4.1 6.6.5 1.7.3 3.2.6 4.7.7.5 0 .6.2.6.5 0 .4-.1.9-.2 2.6-.1 1.5-.1 4-.1 4.7 0 .7-.1 1-.4 1-.3 0-.4-.3-.4-1 0-1.8-.7-3.7-1.9-4.7-1.6-1.4-5.1-2.6-9.1-2.6-6.1 0-8.9 1.8-10.5 3.3-3.3 3.2-4.1 7.3-4.1 11.9 0 8.7 6.7 16.7 16.5 16.7 3.4 0 6.1-.4 7.9-2.3 1-1 1.6-3 1.7-3.8.1-.5.2-.7.5-.7.2 0 .3.3.3.7 0 .3-.5 4.3-1 5.9-.3.9-.4 1-1.2 1.3-1.8.7-5.3 1.1-8.2 1.1-7 0-11.6-1.6-15.2-4.9zM133.1 19.1c9 0 15.9 5.5 15.9 14.6 0 8.7-6.4 15.9-16.1 15.9-11 0-15.7-8.3-15.7-15.3-.1-6.2 4.8-15.2 15.9-15.2zM134 48c3.6 0 10.9-1.9 10.9-13.2 0-9.3-5.7-14.2-12-14.2-6.7 0-11.6 4.2-11.6 12.7 0 9 5.4 14.7 12.7 14.7zM159.6 37.9c0 5.7.1 8.1.8 8.7.6.6 2.2.9 5.3.9 2.1 0 3.9 0 4.8-1.2.5-.6.8-1.4 1-2.2 0-.3.2-.5.4-.5s.3.2.3.6-.3 2.7-.6 3.9c-.3.9-.4 1.1-2.6 1.1-2.9 0-5.1 0-7-.1-1.8 0-3.2-.1-4.4-.1H156c-.8 0-1.7.1-2.3.1-.4 0-.6-.1-.6-.3 0-.1.1-.3.3-.3.4 0 .9-.1 1.2-.2.8-.2.9-.9 1.1-2.1.2-1.6.2-4.7.2-8.4v-6.9c0-6 0-7.1-.1-8.4-.1-1.3-.3-2-1.6-2.2-.3 0-1-.1-1.4-.1-.1 0-.3-.2-.3-.3 0-.2.2-.3.6-.3 1.8 0 4.3.1 4.6.1.2 0 3.2-.1 4.4-.1.4 0 .6.1.6.3 0 .1-.2.3-.3.3-.3 0-.9 0-1.3.1-1.2.2-1.4.8-1.5 2.2v15.4zM177.8 30.9c0-6 0-7.1-.1-8.4-.1-1.2-.3-2-1.6-2.2-.3 0-1-.1-1.4-.1-.1 0-.3-.2-.3-.3 0-.2.2-.3.6-.3 1.8 0 4.2.1 4.6.1s2.9-.1 4.1-.1c.5 0 .7.1.7.3 0 .1-.2.3-.4.3-.3 0-.5 0-1 .1-1.1.2-1.3.9-1.4 2.2-.1 1.2-.1 2.3-.1 8.4v5.4c0 5.6 1.2 8 3 9.5 2 1.8 3.7 2.1 6 2.1 2.5 0 4.8-1.1 6.2-2.7 1.9-2.2 2.3-5.4 2.3-9.4v-4.9c0-6 0-7.1-.1-8.4 0-1.2-.3-2-1.6-2.2-.3 0-1-.1-1.4-.1-.2 0-.3-.2-.3-.3 0-.2.2-.3.6-.3 1.8 0 4.1.1 4.3.1.3 0 2.2-.1 3.4-.1.5 0 .6.1.6.3 0 .1-.1.3-.3.3-.3 0-.5 0-1 .1-1.1.2-1.3.9-1.4 2.2-.1 1.2 0 2.3 0 8.4v4.2c0 4.2-.5 8.9-3.7 11.7-2.9 2.5-6 2.8-8.4 2.8-1.3 0-5.5-.1-8.4-2.7-2-1.8-3.5-4.5-3.5-10.2v-5.8zM242.8 44.1c.1 1.4.4 3.5 2.1 4 1.1.4 2.2.4 2.6.4.2 0 .3.1.3.3 0 .2-.4.4-.8.4-.9 0-5.4 0-6.9-.2-1-.1-1.1-.2-1.1-.4 0-.1.1-.3.3-.3.2 0 .3-.6.2-1.4l-1.9-19.8h-.1L227.7 47c-.8 1.7-1.1 2.1-1.4 2.1-.4 0-.6-.4-1.4-1.8-1.1-1.9-3.7-6.9-4.7-9-1.2-2.5-4.4-9-5.1-10.6h-.2l-1.6 17.6v2c0 .6.4 1 1 1.1.7.2 1.3.2 1.6.2.1 0 .3.1.3.3 0 .3-.3.4-.7.4-1.5 0-3.4-.1-3.7-.1-.4 0-2.3.1-3.4.1-.4 0-.7-.1-.7-.4 0-.1.2-.3.4-.3.3 0 .6 0 1.2-.1 1.3-.2 1.4-1.6 1.6-3.1l2.9-25.4c0-.4.2-.7.5-.7s.6.1.8.6l12.1 24.2L238.9 20c.2-.4.4-.6.6-.6.3 0 .5.3.6 1.1l2.7 23.6zM254.1 30.9c0-6 0-7.1-.1-8.4-.1-1.3-.3-2.1-1.6-2.2-.3 0-1-.1-1.4-.1-.1 0-.3-.1-.3-.2 0-.2.2-.3.6-.3 1.8 0 4.4.1 4.7.1 1 0 2.8-.1 4.7-.1 6.7 0 8.4 3.9 8.4 5.9 0 3.1-2 5-4.1 6.8 3.1.9 7.1 3.7 7.1 8.1 0 4.3-3.2 8.6-10.1 8.6-.7 0-2.2 0-3.5-.1-1.3 0-2.4-.1-2.6-.1h-1.6c-.8 0-1.8.1-2.4.1-.4 0-.6-.1-.6-.3 0-.1.1-.2.3-.2.4 0 .9-.1 1.2-.2.8-.1.9-1 1.1-2.2.2-1.6.2-4.7.2-8.4v-6.8zm3.4.9c0 .3.1.4.3.4.2 0 1 .2 2.5.2 2.2 0 3.1-.1 3.9-1 .9-1 1.6-2.3 1.6-4.2 0-3-1.6-6.3-5.7-6.3-.5 0-1.4 0-2.1.2-.4.1-.5.2-.5.4v10.3zm0 4.3v8.3c.1 1.9.1 2.3 1.4 2.9 1.1.5 2.8.5 3.5.5 2.6 0 5.9-1 5.9-6 0-1.7-.7-5.1-3.8-7.1-1.4-.9-2.6-.8-3.6-1-.5-.1-2.5-.1-3.2-.1-.1 0-.2.1-.2.3v2.2zM283.6 37.8c0 3.8 0 6.8.2 8.4.1 1.1.3 1.9 1.5 2.1.6.1 1.5.2 1.8.2.2 0 .3.2.3.3 0 .2-.2.3-.6.3-2.2 0-4.8-.1-5-.1-.2 0-2.7.1-4 .1-.4 0-.6-.1-.6-.3 0-.1.1-.3.3-.3.4 0 .9-.1 1.2-.2.8-.2.9-.9 1.1-2.1.2-1.6.2-4.7.2-8.4v-6.9c0-6 0-7.1-.1-8.4-.1-1.3-.4-1.9-1.3-2.1-.5-.1-1-.1-1.2-.1-.2 0-.3-.2-.3-.3 0-.2.2-.3.6-.3 1.3 0 3.8.1 4.1.1.2 0 2.8-.1 4-.1.5 0 .6.1.6.3 0 .1-.2.3-.3.3-.3 0-.5 0-1 .1-1.1.2-1.3.8-1.4 2.2v15.2zM303.2 20.5c.5-1.3.7-1.5 1-1.5.4 0 .5.5 1 1.4.7 1.6 7.2 17.7 9.6 23.6 1.5 3.5 2.6 4 3.4 4.3.6.2 1.2.2 1.6.2.2 0 .5.1.5.3 0 .2-.5.3-.9.3-.6 0-3.6 0-6.3-.1-.8 0-1.4 0-1.4-.3 0-.2.1-.2.3-.3.2-.1.6-.4.4-1.1l-3.6-8.9c-.1-.2-.1-.2-.4-.2H299c-.2 0-.3.1-.4.3l-2.3 6.2c-.4 1-.6 1.9-.6 2.6 0 .8.7 1.1 1.4 1.1h.4c.3 0 .4.1.4.3 0 .2-.2.3-.6.3-1 0-3.2-.1-3.6-.1-.4 0-2.4.1-4.1.1-.5 0-.8-.1-.8-.3 0-.2.2-.3.4-.3.3 0 .9 0 1.2-.1 1.8-.2 2.6-1.6 3.4-3.6l9.4-24.2zm4.5 16.2c.2 0 .2-.1.1-.3l-4-10.7c-.2-.6-.5-.6-.7 0l-3.7 10.7c0 .2 0 .3.1.3h8.2zM337 27.8c0-7.1 0-8.4-.1-9.9-.1-1.6-.5-2.3-2-2.6-.4-.1-1.1-.1-1.6-.1-.2 0-.4-.1-.4-.3 0-.3.2-.4.7-.4 2.1 0 4.8.1 5.3.1.4 0 3.2-.1 4.5-.1.5 0 .7.1.7.4 0 .2-.2.3-.4.3-.3 0-.6 0-1.1.1-1.2.2-1.6 1-1.7 2.6-.1 1.5-.1 2.7-.1 9.9v6.4c0 6.6 1.5 9.4 3.4 11.3 2.2 2.1 4.3 2.5 6.9 2.5 2.8 0 5.5-1.3 7.2-3.3 2.1-2.6 2.6-6.5 2.6-11.2v-5.7c0-7.1 0-8.4-.1-9.9-.1-1.6-.5-2.3-2-2.6-.4-.1-1.1-.1-1.6-.1-.2 0-.4-.1-.4-.3 0-.3.2-.4.7-.4 2.1 0 4.6.1 4.8.1.3 0 2.5-.1 3.8-.1.5 0 .7.1.7.4 0 .2-.2.3-.4.3-.3 0-.6 0-1.1.1-1.2.3-1.6 1-1.7 2.6-.1 1.5-.1 2.7-.1 9.9v4.9c0 4.9-.5 10.4-4.2 13.7-3.3 2.9-6.7 3.4-9.4 3.4-1.6 0-6.2-.2-9.4-3.2-2.2-2.2-4-5.4-4-12v-6.8zM375.3 43.8c.1 3.2.5 4.2 1.6 4.4.7.2 1.6.2 2 .2.2 0 .3.1.3.3 0 .2-.3.3-.7.3-2.3 0-3.9-.1-4.2-.1-.4 0-2.1.1-3.9.1-.4 0-.6 0-.6-.3 0-.2.1-.3.3-.3.3 0 1.1 0 1.6-.2 1-.3 1.1-1.3 1.1-4.9V21.1c0-1.6.2-2 .5-2 .5 0 1.1.8 1.6 1.2.6.6 6.5 6.9 12.7 13.3 4 4.1 8.3 8.7 9.5 10l-.4-19.5c0-2.5-.3-3.4-1.5-3.6-.7-.1-1.6-.2-2-.2-.3 0-.3-.2-.3-.4s.3-.3.8-.3c1.8 0 3.7.1 4.2.1s1.8-.1 3.4-.1c.4 0 .7 0 .7.3 0 .1-.2.4-.5.4-.2 0-.5 0-1 .1-1.3.3-1.4 1.1-1.4 3.4l-.1 22.8c0 2.6 0 2.8-.3 2.8-.4 0-.8-.3-3.1-2.4-.4-.4-6.2-6.1-10.5-10.5-4.7-4.9-9.2-9.7-10.4-11l.6 18.3zM413.2 37.8c0 3.8 0 6.8.2 8.4.1 1.1.3 1.9 1.5 2.1.6.1 1.5.2 1.8.2.2 0 .3.2.3.3 0 .2-.2.3-.6.3-2.2 0-4.8-.1-5-.1-.2 0-2.7.1-4 .1-.4 0-.6-.1-.6-.3 0-.1.1-.3.3-.3.4 0 .9-.1 1.2-.2.8-.2.9-.9 1-2.1.2-1.6.2-4.7.2-8.4v-6.9c0-6 0-7.1-.1-8.4-.1-1.3-.4-1.9-1.3-2.1-.5-.1-1-.1-1.2-.1-.2 0-.3-.2-.3-.3 0-.2.2-.3.6-.3 1.3 0 3.8.1 4.1.1.2 0 2.8-.1 4-.1.5 0 .6.1.6.3 0 .1-.2.3-.3.3-.3 0-.5 0-1 .1-1.1.2-1.3.8-1.4 2.2v15.2zM435.9 44c2.3-5.2 7.6-18.5 8.4-21.3.2-.6.4-1.1.4-1.5 0-.3-.1-.7-.5-.8-.5-.1-.9-.1-1.4-.1-.2 0-.5-.1-.5-.3 0-.2.3-.3.9-.3 1.6 0 3.4.1 3.9.1.2 0 2-.1 3.2-.1.4 0 .6.1.6.3 0 .2-.1.4-.5.4-.3 0-1.2 0-1.9.5-.5.4-1.2.9-2.2 3.6-.5 1.1-2.4 5.8-4.5 10.5-2.5 5.7-4.2 9.9-5.2 11.8-1.1 2.3-1.3 2.9-1.7 2.9-.5 0-.7-.5-1.5-2.4l-9.9-23.8c-.9-2.2-1.5-2.6-2.8-2.9-.6-.1-1.3-.1-1.6-.1-.2 0-.3-.2-.3-.4s.4-.3 1.1-.3c1.9 0 4.2.1 4.7.1.4 0 2.2-.1 3.7-.1.7 0 1.1.1 1.1.3 0 .2-.1.4-.4.4-.5 0-1.1 0-1.5.2-.4.2-.5.4-.5.7 0 .5.5 1.7 1.1 3.2l7.8 19.4zM456.9 30.9c0-6 0-7.1-.1-8.4-.1-1.3-.3-2-1.6-2.2-.3 0-1-.1-1.4-.1-.1 0-.3-.2-.3-.3 0-.2.2-.3.6-.3 1.8 0 4.4.1 4.7.1h9.6c.8 0 1.5-.2 1.8-.2.2 0 .4-.2.5-.2.1 0 .2.2.2.4 0 .3-.2.7-.3 1.8 0 .4-.1 2.1-.2 2.6 0 .2-.2.4-.4.4s-.3-.2-.3-.5 0-.9-.2-1.4c-.3-.6-.7-.9-2.9-1.2-.7-.1-5.3-.1-5.8-.1-.2 0-.2.1-.2.4v10.6c0 .3 0 .4.2.4.5 0 5.8 0 6.7-.1 1-.1 1.6-.1 2-.5.3-.3.5-.5.6-.5.1 0 .2.1.2.3 0 .2-.2.9-.3 2.2-.1.8-.2 2.2-.2 2.5 0 .3-.1.7-.4.7-.2 0-.3-.1-.3-.4 0-.4 0-.8-.2-1.3-.1-.5-.5-1-2.1-1.2-1.1-.1-5.4-.2-6.1-.2-.2 0-.3.1-.3.3v9.8c.1 2.6.8 3.1 4.8 3.1 1.1 0 3 0 4-.4 1-.5 1.6-1.1 1.8-2.7.1-.5.2-.6.4-.6s.3.3.3.6-.3 2.9-.5 3.8c-.3 1-.7 1-2.2 1-3 0-5.3-.1-7-.1-1.7-.1-2.7-.1-3.3-.1H457c-.8 0-1.7.1-2.3.1-.4 0-.6-.1-.6-.3 0-.1.1-.3.3-.3.4 0 .9-.1 1.2-.2.8-.1.9-.9 1.1-2.1.2-1.6.2-4.7.2-8.4v-6.8zM479.5 30.9c0-6 0-7.1-.1-8.4-.1-1.3-.3-2-1.6-2.2-.3 0-1-.1-1.4-.1-.1 0-.3-.2-.3-.3 0-.2.2-.3.6-.3 1.8 0 4.5.1 4.7.1.4 0 3.8-.1 5-.1 2.6 0 5.4.2 7.5 1.7 1 .7 2.8 2.6 2.8 5.3 0 2.9-1.2 5.7-4.9 8.9 3.3 4.1 6.1 7.6 8.4 10.1 2.1 2.2 3.5 2.6 4.5 2.7.8.1 1.2.1 1.4.1.2 0 .4.2.4.3 0 .2-.2.3-1 .3H503c-2.3 0-3.3-.2-4.3-.8-1.7-.9-3.2-2.8-5.5-5.7-1.7-2.1-3.5-4.6-4.3-5.7-.2-.2-.3-.2-.5-.2l-5.1-.1c-.2 0-.3.1-.3.3v.9c0 3.8 0 6.8.2 8.4.1 1.1.4 1.9 1.6 2.1.5.1 1.4.2 1.8.2.3 0 .3.2.3.3 0 .2-.2.3-.6.3-2.2 0-4.8-.1-4.9-.1 0 0-2.7.1-4 .1-.4 0-.6-.1-.6-.3 0-.1.1-.3.3-.3.4 0 .9-.1 1.2-.2.8-.2.9-.9 1.1-2.1.2-1.6.2-4.7.2-8.4v-6.8zm3.4 3.3c0 .2.1.4.3.5.6.3 2.6.6 4.4.6 1 0 2.1 0 3-.7 1.4-.9 2.4-3 2.4-5.9 0-4.9-2.6-7.6-6.9-7.6-1.2 0-2.5.1-2.9.2-.2.1-.3.2-.3.5v12.4zM508.3 48.6c-.5-.3-.6-.4-.6-1.5 0-1.9.2-3.5.2-4.1 0-.4.1-.6.3-.6.2 0 .4.1.4.5 0 .3 0 .9.1 1.4.6 2.8 3.7 3.8 6.3 3.8 4 0 6-2.2 6-5.2 0-2.8-1.5-4.1-5.1-6.8l-1.8-1.4c-4.3-3.2-5.8-5.6-5.8-8.3 0-4.6 3.6-7.3 8.9-7.3 1.6 0 3.2.2 4.2.5.8.2 1.1.2 1.4.2.3 0 .4 0 .4.3 0 .2-.2 1.5-.2 4.1 0 .6 0 .9-.3.9s-.3-.2-.4-.5c0-.5-.4-1.5-.6-1.9-.3-.5-1.6-1.9-5.2-1.9-2.9 0-5.3 1.5-5.3 4.2 0 2.5 1.2 3.9 5.2 6.6l1.1.8c4.9 3.3 6.6 6 6.6 9.4 0 2.3-.9 4.8-3.7 6.6-1.7 1.1-4.2 1.4-6.4 1.4-1.8-.2-4.1-.5-5.7-1.2zM535.7 37.8c0 3.8 0 6.8.2 8.4.1 1.1.3 1.9 1.5 2.1.6.1 1.5.2 1.8.2.2 0 .3.2.3.3 0 .2-.2.3-.6.3-2.2 0-4.8-.1-5-.1-.2 0-2.7.1-4 .1-.4 0-.6-.1-.6-.3 0-.1.1-.3.3-.3.4 0 .9-.1 1.2-.2.8-.2.9-.9 1-2.1.2-1.6.2-4.7.2-8.4v-6.9c0-6 0-7.1-.1-8.4-.1-1.3-.4-1.9-1.3-2.1-.5-.1-1-.1-1.2-.1-.2 0-.3-.2-.3-.3 0-.2.2-.3.6-.3 1.3 0 3.8.1 4.1.1.2 0 2.8-.1 4-.1.5 0 .6.1.6.3 0 .1-.2.3-.3.3-.3 0-.5 0-1 .1-1.1.2-1.3.8-1.4 2.2v15.2zM556.9 37.8c0 3.8 0 6.8.2 8.4.1 1.1.3 1.9 1.6 2.1.5.1 1.5.2 1.8.2.3 0 .3.2.3.3 0 .2-.2.3-.6.3-2.2 0-4.7-.1-5-.1-.2 0-3 .1-4.2.1-.5 0-.6-.1-.6-.3 0-.1.1-.3.3-.3.4 0 .8-.1 1.2-.2.8-.2 1.1-1 1.2-2.1.2-1.6.2-4.7.2-8.4V21.5l-5.8.1c-2.5 0-3.5.3-4.1 1.2-.5.7-.5 1-.6 1.2-.1.3-.2.4-.4.4-.1 0-.3-.1-.3-.3 0-.4.8-3.9.9-4.2 0-.2.3-.7.4-.7.3 0 .7.3 1.8.5 1.1.1 2.7.2 3.2.2h15.2c1.3 0 2.2-.1 2.9-.2.6-.1 1-.2 1.1-.2.2 0 .2.2.2.5 0 1.2-.1 4-.1 4.4 0 .3-.2.5-.4.5s-.3-.1-.3-.7v-.4c-.1-1.2-1-2.1-4.8-2.2l-5-.1v16.3zM583.7 39c0-2.1-.3-2.9-.9-4-.3-.6-5.8-9.2-7.1-11.3-1-1.5-1.9-2.3-2.6-2.8-.6-.4-1.4-.5-1.7-.5-.2 0-.4-.2-.4-.4s.1-.3.5-.3c.8 0 3.8.1 4 .1.3 0 1.9-.1 3.5-.1.5 0 .5.1.5.3 0 .1-.3.3-.6.4-.3.1-.5.3-.5.6 0 .5.3 1 .5 1.5l7.3 12.1c.8-1.6 5.8-10 6.6-11.3.5-.9.7-1.5.7-2s-.2-.9-.6-1c-.4-.1-.6-.3-.6-.5 0-.1.2-.2.6-.2 1.1 0 2.5.1 2.8.1.3 0 3.2-.1 3.9-.1.3 0 .5.1.5.2 0 .2-.2.4-.5.4-.5 0-1.2.1-1.9.5-.8.5-1.1.9-2 1.9-1.3 1.6-7 10.7-7.8 12.4-.7 1.4-.5 2.6-.5 3.9v3.3c0 .6 0 2.3.1 3.9.1 1.1.4 1.9 1.6 2.1.5.1 1.5.2 1.8.2.2 0 .3.2.3.3 0 .2-.2.3-.6.3-2.2 0-4.8-.1-5.1-.1-.2 0-2.7.1-3.9.1-.5 0-.6-.1-.6-.3 0-.1.1-.3.3-.3.4 0 .8-.1 1.2-.2.8-.2 1.1-.9 1.2-2.1.1-1.6.1-3.2.1-3.9V39z"/>
            </g>
            <g id="Columbia_Crown_Logo_9_">
              <g class="st2">
                <path fill="#1f4e79" class="st3" d="M57.9 20.9c-.6-3.6-3.5-6.1-7-6.3-6.4-.6-11.9 2.8-18 3.9-.5.1-1.1-1-1.7-1.5 2.8-2.1 2.5-6.3-.8-8.2-.2-.3-.1-2.7 0-2.8.3-.2 2.4.2 2.7-.1.3-.3.2-2.8 0-3-.2-.2-2.6 0-2.7-.1-.1-.2.1-2.4-.2-2.6C30 0 29.4 0 29 0c-.4 0-1 0-1.2.1-.2.2 0 2.4-.2 2.6-.1.2-2.5-.1-2.7.1-.2.2-.2 2.8 0 3 .3.3 2.4-.1 2.7.1.1.1.2 2.5 0 2.8-3.3 1.8-3.7 6-.8 8.2-.6.6-1.3 1.6-1.7 1.5-6.1-1-11.6-4.4-17.9-3.9-3.5.3-6.4 2.8-7 6.3C-.9 27.2 3.7 32.2 6 37.7c.7 1.7 1.3 4 1.2 6h43.7c-.1-2 .5-4.3 1.2-6 2.2-5.4 6.9-10.4 5.8-16.8zM26.4 35.1c-.6 3.2-2.4 5.3-3.9 5.3-1 0-1.8-.4-2.5-1-1-.9-1.8-2.3-1.5-3.1.2-.3 2.9.1 3.1-.1.2-.3-.3-2.3-.6-2.6-.3-.3-2.7.1-3-.2-.3-.3-.6-2.8-.9-3 0 0-2.5-.4-2.7 0-.2.4.9 2.5.7 2.9-.2.4-3.5-.3-3.6.1-.1.4.2 2.3.5 2.5.3.3 3.5.3 3.5.3.6.5.8 1.5.8 2.5 0 1.3-1 2-2.6 1.5-3-.8-6.8-7.4-9-12-1.6-3.3-2.6-8.8 1.7-10.5 2.6-1 5.4-.4 8.2.4 3 .9 6.9 2.1 9.1 3.5.6.3-.7.1 1.4 4.6.7 2.2 1.7 6.7 1.3 8.9zm18.1 5.1c-1.6.5-2.6-.2-2.6-1.5 0-1 .2-2 .8-2.5 0 0 3.1 0 3.4-.3.3-.3.6-2.2.5-2.5-.1-.4-3.4.3-3.6-.1-.2-.4.9-2.5.7-2.9-.2-.4-2.7 0-2.7 0-.3.2-.6 2.7-.9 3-.3.3-2.7-.1-3 .2-.3.3-.8 2.3-.6 2.6.2.3 2.8-.1 3.1.1.3.8-.5 2.3-1.5 3.1-.7.6-1.5 1-2.5 1-1.5 0-3.3-2.1-3.9-5.3-.4-2.3.6-6.7 1.5-8.8 2-4.5.8-4.2 1.4-4.6 2.3-1.4 6.2-2.6 9.1-3.5 2.8-.8 5.6-1.4 8.2-.4 4.3 1.6 3.3 7.1 1.7 10.5-2.3 4.5-6.1 11.1-9.1 11.9zm6.9 6.6v3.8H6.7v-3.8h44.7z"/>
              </g>
              <path fill="#1f4e79" class="st1" d="M57.9 20.9c-.6-3.6-3.5-6.1-7-6.3-6.4-.6-11.9 2.8-18 3.9-.5.1-1.1-1-1.7-1.5 2.8-2.1 2.5-6.3-.8-8.2-.2-.3-.1-2.7 0-2.8.3-.2 2.4.2 2.7-.1.3-.3.2-2.8 0-3-.2-.2-2.6 0-2.7-.1-.1-.2.1-2.4-.2-2.6C30 0 29.4 0 29 0c-.4 0-1 0-1.2.1-.2.2 0 2.4-.2 2.6-.1.2-2.5-.1-2.7.1-.2.2-.2 2.8 0 3 .3.3 2.4-.1 2.7.1.1.1.2 2.5 0 2.8-3.3 1.8-3.7 6-.8 8.2-.6.6-1.3 1.6-1.7 1.5-6.1-1-11.6-4.4-17.9-3.9-3.5.3-6.4 2.8-7 6.3C-.9 27.2 3.7 32.2 6 37.7c.7 1.7 1.3 4 1.2 6h43.7c-.1-2 .5-4.3 1.2-6 2.2-5.4 6.9-10.4 5.8-16.8zM26.4 35.1c-.6 3.2-2.4 5.3-3.9 5.3-1 0-1.8-.4-2.5-1-1-.9-1.8-2.3-1.5-3.1.2-.3 2.9.1 3.1-.1.2-.3-.3-2.3-.6-2.6-.3-.3-2.7.1-3-.2-.3-.3-.6-2.8-.9-3 0 0-2.5-.4-2.7 0-.2.4.9 2.5.7 2.9-.2.4-3.5-.3-3.6.1-.1.4.2 2.3.5 2.5.3.3 3.5.3 3.5.3.6.5.8 1.5.8 2.5 0 1.3-1 2-2.6 1.5-3-.8-6.8-7.4-9-12-1.6-3.3-2.6-8.8 1.7-10.5 2.6-1 5.4-.4 8.2.4 3 .9 6.9 2.1 9.1 3.5.6.3-.7.1 1.4 4.6.7 2.2 1.7 6.7 1.3 8.9zm18.1 5.1c-1.6.5-2.6-.2-2.6-1.5 0-1 .2-2 .8-2.5 0 0 3.1 0 3.4-.3.3-.3.6-2.2.5-2.5-.1-.4-3.4.3-3.6-.1-.2-.4.9-2.5.7-2.9-.2-.4-2.7 0-2.7 0-.3.2-.6 2.7-.9 3-.3.3-2.7-.1-3 .2-.3.3-.8 2.3-.6 2.6.2.3 2.8-.1 3.1.1.3.8-.5 2.3-1.5 3.1-.7.6-1.5 1-2.5 1-1.5 0-3.3-2.1-3.9-5.3-.4-2.3.6-6.7 1.5-8.8 2-4.5.8-4.2 1.4-4.6 2.3-1.4 6.2-2.6 9.1-3.5 2.8-.8 5.6-1.4 8.2-.4 4.3 1.6 3.3 7.1 1.7 10.5-2.3 4.5-6.1 11.1-9.1 11.9zm6.9 6.6v3.8H6.7v-3.8h44.7z"/>
            </g>
            <path fill="#1f4e79" class="st1" d="M85.7 75.6c0-6.3 0-7.5-.1-8.8-.1-1.4-.4-2-1.7-2.3-.3-.1-1-.1-1.4-.1-.2 0-.3-.1-.3-.2 0-.2.2-.3.6-.3 1.8 0 4.4.1 4.6.1.5 0 3-.1 5.5-.1 4 0 11.4-.4 16.3 4.6 2 2.1 3.9 5.5 3.9 10.3 0 5.1-2.1 9-4.4 11.4-1.7 1.8-5.4 4.7-12.3 4.7-1.7 0-3.9-.1-5.6-.2-1.8-.1-3.2-.2-3.4-.2h-1.6c-.8 0-1.7.1-2.4.1-.4 0-.6-.1-.6-.3 0-.1.1-.2.3-.2.4 0 .9-.1 1.2-.2.8-.2 1-1.1 1.2-2.2.2-1.7.2-4.9.2-8.8v-7.3zm3.4 4.4c0 4.3 0 8 .1 8.8 0 1 .1 2.6.4 3.1.5.8 2.1 1.6 6.9 1.6 3.8 0 7.3-1.4 9.7-3.8 2.1-2.1 3.2-6 3.2-9.7 0-5.2-2.2-8.5-3.9-10.2-3.8-4-8.4-4.6-13.3-4.6-.8 0-2.3.1-2.6.3-.4.2-.5.4-.5.8V80zM126.9 69.1c.4-1.1.6-1.3.9-1.3.4 0 .5.5.9 1.3.6 1.5 6.4 15.7 8.6 20.9 1.3 3.1 2.3 3.5 3 3.8.5.2 1.1.2 1.4.2.2 0 .4.1.4.3s-.4.3-.8.3c-.5 0-3.2 0-5.6-.1-.7 0-1.3 0-1.3-.2s.1-.2.2-.2c.2-.1.6-.4.3-.9l-3.2-7.9c-.1-.2-.1-.2-.3-.2h-8.2c-.2 0-.3.1-.4.3l-2 5.5c-.3.9-.5 1.7-.5 2.3 0 .7.6.9 1.2.9h.3c.3 0 .4.1.4.3 0 .2-.2.3-.5.3-.9 0-2.8-.1-3.2-.1-.4 0-2.1.1-3.6.1-.4 0-.7-.1-.7-.3 0-.2.2-.3.3-.3.2 0 .8 0 1.1-.1 1.6-.2 2.3-1.4 3-3.2l8.3-21.7zm4 14.4c.2 0 .2-.1.1-.2l-3.5-9.5c-.2-.5-.4-.5-.6 0l-3.3 9.5c0 .2 0 .2.1.2h7.2zM152 84.5c0 3.3 0 6 .2 7.5.1 1 .3 1.7 1.4 1.8.5.1 1.3.2 1.6.2.2 0 .3.2.3.3 0 .2-.2.3-.6.3-1.9 0-4.2-.1-4.4-.1-.2 0-2.6.1-3.7.1-.4 0-.6-.1-.6-.3 0-.1.1-.2.3-.2.3 0 .7-.1 1.1-.2.7-.2.9-.9 1.1-1.9.2-1.4.2-4.1.2-7.5V70l-5.2.1c-2.2 0-3.1.3-3.6 1.1-.4.6-.4.9-.6 1.1-.1.3-.2.3-.4.3-.1 0-.2-.1-.2-.3 0-.4.7-3.4.8-3.7.1-.2.2-.6.4-.6s.6.3 1.6.4c1 .1 2.4.2 2.8.2H158c1.2 0 2-.1 2.6-.2.5-.1.9-.2 1-.2.2 0 .2.2.2.4 0 1.1-.1 3.5-.1 3.9 0 .3-.2.4-.3.4-.2 0-.2-.1-.3-.6v-.4c-.1-1.1-.9-1.8-4.3-1.9H152v14.5zM172.7 69.1c.4-1.1.6-1.3.9-1.3.4 0 .5.5.9 1.3.6 1.5 6.4 15.7 8.6 20.9 1.3 3.1 2.3 3.5 3 3.8.5.2 1.1.2 1.4.2.2 0 .4.1.4.3s-.4.3-.8.3c-.5 0-3.2 0-5.6-.1-.7 0-1.3 0-1.3-.2s.1-.2.2-.2c.2-.1.6-.4.3-.9l-3.2-7.9c-.1-.2-.1-.2-.3-.2H169c-.2 0-.3.1-.4.3l-2 5.5c-.3.9-.5 1.7-.5 2.3 0 .7.6.9 1.2.9h.3c.3 0 .4.1.4.3 0 .2-.2.3-.5.3-.9 0-2.8-.1-3.2-.1-.4 0-2.1.1-3.6.1-.4 0-.7-.1-.7-.3 0-.2.2-.3.3-.3.2 0 .8 0 1.1-.1 1.6-.2 2.3-1.4 3-3.2l8.3-21.7zm4 14.4c.2 0 .2-.1.1-.2l-3.5-9.5c-.2-.5-.4-.5-.6 0l-3.3 9.5c0 .2 0 .2.1.2h7.2zM204.1 94c-.6-.3-.6-.4-.6-1.5 0-2 .2-3.7.2-4.3 0-.4.1-.6.3-.6.2 0 .3.1.3.4 0 .4 0 .9.1 1.5.6 3 3.3 4.1 6 4.1 3.9 0 5.8-2.8 5.8-5.4 0-2.8-1.2-4.4-4.7-7.3l-1.8-1.5c-4.3-3.5-5.3-6-5.3-8.8 0-4.3 3.2-7.3 8.4-7.3 1.6 0 2.8.2 3.8.4.8.2 1.1.2 1.4.2.3 0 .4.1.4.3s-.2 1.5-.2 4.3c0 .6-.1.9-.3.9-.2 0-.3-.2-.3-.5 0-.5-.3-1.6-.5-2-.2-.4-1.3-2.1-5.1-2.1-2.8 0-5 1.7-5 4.7 0 2.3 1.1 3.8 4.9 6.8l1.1.9c4.8 3.8 5.9 6.3 5.9 9.5 0 1.7-.6 4.7-3.4 6.7-1.7 1.2-3.9 1.7-6.1 1.7-1.8 0-3.6-.3-5.3-1.1zM229.2 91.3c-3.5-3-4.3-6.9-4.3-10.2 0-2.3.9-6.3 4-9.4 2.1-2.1 5.4-3.7 10.9-3.7 1.4 0 3.4.1 5.2.4 1.3.2 2.5.5 3.7.5.4 0 .4.2.4.4 0 .3-.1.7-.2 1.9 0 1.1 0 3-.1 3.5 0 .5-.2.7-.4.7s-.3-.2-.3-.7c0-1.3-.6-2.7-1.5-3.4-1.3-1.1-3.9-1.9-7-1.9-4.6 0-6.8 1.2-8 2.4-2.6 2.4-3.2 5.5-3.2 9 0 6.6 5.2 12.5 12.9 12.5 2.7 0 4.5-.2 5.9-1.6.8-.8 1.3-2.2 1.4-2.9.1-.4.1-.5.4-.5.2 0 .3.2.3.5 0 .2-.5 3.2-.9 4.4-.2.6-.3.8-.9 1-1.5.6-4.1.8-6.4.8-5.5 0-9.1-1.3-11.9-3.7zM260.8 84.5c0 3.3 0 6 .2 7.5.1 1 .2 1.7 1.3 1.8.5.1 1.3.2 1.6.2.2 0 .3.2.3.3 0 .2-.2.3-.6.3-2 0-4.3-.1-4.5-.1-.2 0-2.4.1-3.5.1-.4 0-.6-.1-.6-.3 0-.1.1-.3.3-.3.3 0 .8-.1 1.1-.2.7-.2.8-.8.9-1.8.2-1.4.2-4.1.2-7.5v-6.1c0-5.4 0-6.3-.1-7.4-.1-1.2-.4-1.7-1.1-1.9-.4-.1-.9-.1-1.1-.1-.2 0-.3-.2-.3-.3 0-.2.2-.3.6-.3 1.2 0 3.4.1 3.6.1.2 0 2.5-.1 3.6-.1.4 0 .6.1.6.3 0 .1-.2.3-.3.3-.2 0-.5 0-.9.1-1 .2-1.2.7-1.3 1.9v13.5zM272.6 78.4c0-5.4 0-6.3-.1-7.4-.1-1.2-.3-1.7-1.5-1.9-.3 0-.9-.1-1.2-.1-.1 0-.3-.2-.3-.3 0-.2.2-.3.6-.3 1.6 0 3.9.1 4.1.1h8.5c.7 0 1.3-.2 1.6-.2.2 0 .3-.2.5-.2.1 0 .2.2.2.3 0 .2-.2.6-.3 1.6 0 .3-.1 1.9-.2 2.3 0 .2-.2.4-.3.4-.2 0-.3-.2-.3-.4s0-.8-.2-1.2c-.2-.6-.6-.8-2.6-1.1-.6-.1-4.7-.1-5.2-.1-.2 0-.2.1-.2.4v9.4c0 .2 0 .4.2.4.4 0 5.2 0 6-.1.9-.1 1.4-.1 1.7-.5.2-.2.4-.4.5-.4.1 0 .2.1.2.3s-.2.8-.3 1.9c-.1.7-.2 2-.2 2.2 0 .3-.1.7-.3.7-.2 0-.2-.1-.2-.3 0-.3 0-.7-.2-1.1-.1-.5-.4-.9-1.8-1.1-1-.1-4.8-.2-5.4-.2-.2 0-.2.1-.2.2v8.8c.1 2.3.7 2.8 4.3 2.8.9 0 2.6 0 3.6-.4.9-.4 1.4-1 1.6-2.4.1-.4.2-.5.4-.5s.2.3.2.5-.3 2.6-.5 3.3c-.2.9-.6.9-2 .9-2.7 0-4.7-.1-6.2-.1-1.5-.1-2.4-.1-3-.1h-1.5c-.7 0-1.5.1-2.1.1-.4 0-.6-.1-.6-.3 0-.1.1-.3.3-.3.3 0 .8-.1 1.1-.2.7-.1.8-.8.9-1.8.2-1.4.2-4.1.2-7.5v-6.1zM296.4 89.8c.1 2.8.4 3.7 1.4 3.9.6.2 1.5.2 1.8.2.2 0 .3.1.3.3 0 .2-.2.3-.6.3-2 0-3.4-.1-3.8-.1-.3 0-1.8.1-3.4.1-.4 0-.6 0-.6-.3 0-.2.1-.3.3-.3.3 0 .9 0 1.5-.2.9-.2 1-1.2 1-4.3V69.7c0-1.4.2-1.7.5-1.7.4 0 1 .7 1.4 1.1.6.6 5.8 6.1 11.3 11.8 3.5 3.7 7.3 7.7 8.4 8.9l-.4-17.3c0-2.2-.2-3-1.3-3.2-.6-.1-1.5-.2-1.7-.2-.2 0-.3-.2-.3-.3 0-.2.3-.2.7-.2 1.6 0 3.3.1 3.7.1.4 0 1.6-.1 3-.1.4 0 .6 0 .6.2 0 .1-.2.3-.4.3s-.4 0-.9.1c-1.2.2-1.3.9-1.3 3l-.1 20.2c0 2.3 0 2.5-.3 2.5-.4 0-.7-.3-2.7-2.1-.4-.3-5.5-5.4-9.3-9.3-4.1-4.3-8.2-8.6-9.2-9.8l.4 16.1zM328.4 91.3c-3.5-3-4.3-6.9-4.3-10.2 0-2.3.9-6.3 4-9.4 2.1-2.1 5.4-3.7 10.9-3.7 1.4 0 3.4.1 5.2.4 1.3.2 2.5.5 3.7.5.4 0 .4.2.4.4 0 .3-.1.7-.2 1.9 0 1.1 0 3-.1 3.5 0 .5-.2.7-.4.7s-.3-.2-.3-.7c0-1.3-.6-2.7-1.5-3.4-1.3-1.1-3.9-1.9-7-1.9-4.6 0-6.8 1.2-8 2.4-2.6 2.4-3.2 5.5-3.2 9 0 6.6 5.2 12.5 12.9 12.5 2.7 0 4.5-.2 5.9-1.6.8-.8 1.3-2.2 1.4-2.9.1-.4.1-.5.4-.5.2 0 .3.2.3.5 0 .2-.5 3.2-.9 4.4-.2.6-.3.8-.9 1-1.5.6-4.1.8-6.4.8-5.5 0-9.1-1.3-11.9-3.7zM356.8 78.4c0-5.4 0-6.3-.1-7.4-.1-1.2-.3-1.7-1.5-1.9-.3 0-.9-.1-1.2-.1-.1 0-.3-.2-.3-.3 0-.2.2-.3.6-.3 1.6 0 3.9.1 4.1.1h8.5c.7 0 1.3-.2 1.6-.2.2 0 .3-.2.5-.2.1 0 .2.2.2.3 0 .2-.2.6-.3 1.6 0 .3-.1 1.9-.2 2.3 0 .2-.2.4-.3.4-.2 0-.3-.2-.3-.4s0-.8-.2-1.2c-.2-.6-.6-.8-2.6-1.1-.6-.1-4.7-.1-5.2-.1-.2 0-.2.1-.2.4v9.4c0 .2 0 .4.2.4.4 0 5.2 0 6-.1.9-.1 1.4-.1 1.7-.5.2-.2.4-.4.5-.4.1 0 .2.1.2.3s-.2.8-.3 1.9c-.1.7-.2 2-.2 2.2 0 .3-.1.7-.3.7-.2 0-.2-.1-.2-.3 0-.3 0-.7-.2-1.1-.1-.5-.4-.9-1.8-1.1-1-.1-4.8-.2-5.4-.2-.2 0-.2.1-.2.2v8.8c.1 2.3.7 2.8 4.3 2.8.9 0 2.6 0 3.6-.4.9-.4 1.4-1 1.6-2.4.1-.4.2-.5.4-.5s.2.3.2.5-.3 2.6-.5 3.3c-.2.9-.6.9-2 .9-2.7 0-4.7-.1-6.2-.1-1.5-.1-2.4-.1-3-.1h-1.5c-.7 0-1.5.1-2.1.1-.4 0-.6-.1-.6-.3 0-.1.1-.3.3-.3.3 0 .8-.1 1.1-.2.7-.1.8-.8.9-1.8.2-1.4.2-4.1.2-7.5v-6.1z"/>
            <g>
              <path fill="#1f4e79" class="st1" d="M393 82.9c0 3.9 0 7.1.2 8.8.1 1.2.4 2.1 1.6 2.2.6.1 1.5.2 1.8.2.2 0 .3.1.3.2 0 .2-.2.3-.7.3-2.2 0-4.8-.1-5-.1-.2 0-2.8.1-4 .1-.4 0-.6-.1-.6-.3 0-.1.1-.2.3-.2.4 0 .9-.1 1.2-.2.8-.2 1-1.1 1.2-2.2.2-1.7.2-4.9.2-8.8v-7.1c0-6.3 0-7.5-.1-8.8-.1-1.4-.5-2.1-1.4-2.3-.4-.1-1-.2-1.3-.2-.2 0-.3-.1-.3-.2 0-.2.2-.3.6-.3 1.3 0 3.9.1 4.1.1.2 0 2.8-.1 4-.1.4 0 .6.1.6.3 0 .2-.2.2-.3.2-.3 0-.5 0-1 .1-1.1.2-1.4.9-1.5 2.3-.1 1.3-.1 2.4-.1 8.8v7.2zM408 89.9c.1 2.8.4 3.7 1.4 3.9.6.2 1.5.2 1.8.2.2 0 .3.1.3.3 0 .2-.2.3-.6.3-2 0-3.4-.1-3.8-.1-.3 0-1.8.1-3.4.1-.4 0-.6 0-.6-.3 0-.2.1-.3.3-.3.3 0 .9 0 1.5-.2.9-.2 1-1.2 1-4.3V69.8c0-1.4.2-1.7.5-1.7.4 0 1 .7 1.4 1.1.6.6 5.8 6.1 11.3 11.8 3.5 3.7 7.3 7.7 8.4 8.9l-.5-17.4c0-2.2-.2-3-1.3-3.2-.6-.1-1.5-.2-1.7-.2-.2 0-.3-.2-.3-.3 0-.2.3-.2.7-.2 1.6 0 3.3.1 3.7.1.4 0 1.6-.1 3-.1.4 0 .6 0 .6.2 0 .1-.2.3-.4.3s-.4 0-.9.1c-1.2.2-1.3.9-1.3 3l-.1 20.2c0 2.3 0 2.5-.3 2.5-.4 0-.7-.3-2.7-2.1-.4-.3-5.5-5.4-9.3-9.3-4.1-4.3-8.2-8.6-9.2-9.8l.5 16.2zM437.3 94.2c-.5-.2-.5-.4-.5-1.3 0-1.7.2-3.1.2-3.7 0-.4.1-.6.3-.6s.3.1.3.4 0 .8.1 1.3c.6 2.5 3.2 3.4 5.6 3.4 3.5 0 5.4-2 5.4-4.6 0-2.5-1.3-3.7-4.5-6l-1.6-1.2c-3.9-2.9-5.1-5-5.1-7.4 0-4.1 3.2-6.5 7.9-6.5 1.4 0 2.8.2 3.7.4.7.2 1 .2 1.3.2s.4 0 .4.2-.2 1.3-.2 3.7c0 .5 0 .8-.3.8-.2 0-.3-.2-.3-.4 0-.4-.3-1.3-.5-1.7-.2-.4-1.4-1.7-4.6-1.7-2.6 0-4.7 1.3-4.7 3.7 0 2.2 1.1 3.4 4.6 5.8l1 .7c4.3 3 5.8 5.4 5.8 8.3 0 2-.8 4.2-3.3 5.9-1.5 1-3.7 1.2-5.7 1.2-1.7 0-3.8-.3-5.3-.9zM469.4 84.6c0 3.3 0 6 .2 7.5.1 1 .3 1.7 1.4 1.8.5.1 1.3.2 1.6.2.2 0 .3.2.3.3 0 .2-.2.3-.6.3-1.9 0-4.2-.1-4.4-.1-.2 0-2.6.1-3.7.1-.4 0-.6-.1-.6-.3 0-.1.1-.2.3-.2.3 0 .7-.1 1.1-.2.7-.2.9-.9 1.1-1.9.2-1.4.2-4.1.2-7.5V70.1l-5.2.1c-2.2 0-3.1.3-3.6 1.1-.4.6-.4.9-.6 1.1-.1.3-.2.3-.4.3-.1 0-.2-.1-.2-.3 0-.4.7-3.4.8-3.7.1-.2.2-.6.4-.6s.6.3 1.6.4c1 .1 2.4.2 2.8.2h13.5c1.2 0 2-.1 2.6-.2.5-.1.9-.2 1-.2s.2.2.2.4c0 1.1-.1 3.5-.1 3.9 0 .3-.2.4-.3.4-.2 0-.2-.1-.3-.6V72c-.1-1.1-.9-1.8-4.3-1.9l-4.5-.1v14.6zM489.6 84.6c0 3.3 0 6 .2 7.5.1 1 .2 1.7 1.3 1.8.5.1 1.3.2 1.6.2.2 0 .3.2.3.3 0 .2-.2.3-.6.3-2 0-4.3-.1-4.5-.1-.2 0-2.4.1-3.5.1-.4 0-.6-.1-.6-.3 0-.1.1-.3.3-.3.3 0 .8-.1 1.1-.2.7-.2.8-.8.9-1.8.2-1.4.2-4.1.2-7.5v-6.1c0-5.4 0-6.3-.1-7.4-.1-1.2-.4-1.7-1.1-1.9-.4-.1-.9-.1-1.1-.1-.2 0-.3-.2-.3-.3 0-.2.2-.3.6-.3 1.2 0 3.4.1 3.6.1.2 0 2.5-.1 3.6-.1.4 0 .6.1.6.3 0 .1-.2.3-.3.3-.2 0-.5 0-.9.1-1 .2-1.2.7-1.3 1.9v13.5zM509.9 84.6c0 3.3 0 6 .2 7.5.1 1 .3 1.7 1.4 1.8.5.1 1.3.2 1.6.2.2 0 .3.2.3.3 0 .2-.2.3-.6.3-1.9 0-4.2-.1-4.4-.1-.2 0-2.6.1-3.7.1-.4 0-.6-.1-.6-.3 0-.1.1-.2.3-.2.3 0 .7-.1 1.1-.2.7-.2.9-.9 1.1-1.9.2-1.4.2-4.1.2-7.5V70.1l-5.2.1c-2.2 0-3.1.3-3.6 1.1-.4.6-.4.9-.6 1.1-.1.3-.2.3-.4.3-.1 0-.2-.1-.2-.3 0-.4.7-3.4.8-3.7.1-.2.2-.6.4-.6s.6.3 1.6.4c1 .1 2.4.2 2.8.2h13.5c1.2 0 2-.1 2.6-.2.5-.1.9-.2 1-.2s.2.2.2.4c0 1.1-.1 3.5-.1 3.9 0 .3-.2.4-.3.4s-.2-.1-.3-.6V72c-.1-1.1-.9-1.8-4.3-1.9l-4.5-.1v14.6zM525 78.5c0-5.4 0-6.3-.1-7.4-.1-1.1-.3-1.7-1.5-1.9-.3 0-.9-.1-1.2-.1-.1 0-.3-.2-.3-.3 0-.2.2-.3.6-.3 1.6 0 3.8.1 4.1.1.3 0 2.6-.1 3.6-.1.4 0 .6.1.6.3 0 .1-.2.3-.3.3-.2 0-.4 0-.9.1-.9.2-1.1.8-1.2 1.9-.1 1.1-.1 2.1-.1 7.4v4.8c0 5 1.1 7.1 2.6 8.4 1.7 1.6 3.3 1.9 5.3 1.9 2.2 0 4.3-1 5.5-2.4 1.7-2 2-4.8 2-8.4v-4.3c0-5.4 0-6.3-.1-7.4 0-1.1-.2-1.7-1.4-1.9-.3 0-.9-.1-1.2-.1-.2 0-.3-.2-.3-.3 0-.2.2-.3.6-.3 1.6 0 3.7.1 3.9.1.2 0 1.9-.1 3-.1.4 0 .6.1.6.3 0 .1-.1.3-.3.3-.2 0-.4 0-.9.1-1 .2-1.2.8-1.3 1.9-.1 1.1 0 2.1 0 7.4v3.7c0 3.7-.5 7.9-3.3 10.3-2.6 2.2-5.4 2.5-7.5 2.5-1.2 0-4.9-.1-7.4-2.4-1.7-1.6-3.1-4-3.1-9v-5.1zM564.3 84.6c0 3.3 0 6 .2 7.5.1 1 .3 1.7 1.4 1.8.5.1 1.3.2 1.6.2.2 0 .3.2.3.3 0 .2-.2.3-.6.3-1.9 0-4.2-.1-4.4-.1-.2 0-2.6.1-3.7.1-.4 0-.6-.1-.6-.3 0-.1.1-.2.3-.2.3 0 .7-.1 1.1-.2.7-.2.9-.9 1.1-1.9.2-1.4.2-4.1.2-7.5V70.1l-5.2.1c-2.2 0-3.1.3-3.6 1.1-.4.6-.4.9-.6 1.1-.1.3-.2.3-.4.3-.1 0-.2-.1-.2-.3 0-.4.7-3.4.8-3.7.1-.2.2-.6.4-.6s.6.3 1.6.4c1 .1 2.4.2 2.8.2h13.5c1.2 0 2-.1 2.6-.2.5-.1.9-.2 1-.2s.2.2.2.4c0 1.1-.1 3.5-.1 3.9 0 .3-.2.4-.3.4s-.2-.1-.3-.6V72c-.1-1.1-.9-1.8-4.3-1.9l-4.5-.1v14.6zM581.3 78.5c0-5.4 0-6.3-.1-7.4-.1-1.2-.3-1.7-1.5-1.9-.3 0-.9-.1-1.2-.1-.1 0-.3-.2-.3-.3 0-.2.2-.3.6-.3 1.6 0 3.9.1 4.1.1h8.5c.7 0 1.3-.2 1.6-.2.2 0 .3-.2.5-.2.1 0 .2.2.2.3 0 .2-.2.6-.3 1.6 0 .3-.1 1.9-.2 2.3 0 .2-.2.4-.3.4-.2 0-.3-.2-.3-.4s0-.8-.2-1.2c-.2-.6-.6-.8-2.6-1.1-.6-.1-4.7-.1-5.2-.1-.2 0-.2.1-.2.4v9.4c0 .2 0 .4.2.4.4 0 5.2 0 6-.1.9-.1 1.4-.1 1.7-.5.2-.2.4-.4.5-.4s.2.1.2.3c0 .2-.2.8-.3 1.9-.1.7-.2 2-.2 2.2 0 .3-.1.7-.3.7-.2 0-.2-.1-.2-.3 0-.3 0-.7-.2-1.1-.1-.5-.4-.9-1.8-1.1-1-.1-4.8-.2-5.4-.2-.2 0-.2.1-.2.2v8.8c.1 2.3.7 2.8 4.3 2.8.9 0 2.6 0 3.6-.4.9-.4 1.4-1 1.6-2.4.1-.4.2-.5.4-.5s.2.3.2.5-.3 2.6-.5 3.3c-.2.9-.6.9-2 .9-2.7 0-4.7-.1-6.2-.1-1.5-.1-2.4-.1-3-.1h-1.5c-.7 0-1.5.1-2.1.1-.4 0-.6-.1-.6-.3 0-.1.1-.3.3-.3.3 0 .8-.1 1.1-.2.7-.1.8-.8.9-1.8.2-1.4.2-4.1.2-7.5v-6.1z"/>
            </g>
          </g>
        </svg>
